<svg width="701" height="127" viewBox="0 0 701 127" fill="none" xmlns="http://www.w3.org/2000/svg">
<path d="M118.885 46.9168C118.885 44.8569 119.667 43.0854 121.233 41.6022C122.881 40.1191 124.858 39.3775 127.165 39.3775H182.288C182.288 44.3213 181.423 47.9467 179.693 50.2538C178.045 52.4785 175.326 53.5909 171.536 53.5909H135.446V75.0962H168.322C168.322 80.04 167.457 83.6654 165.727 85.9725C164.079 88.1972 161.36 89.3095 157.57 89.3095H135.446V111.68H174.131C177.839 111.68 180.517 112.834 182.165 115.141C183.895 117.365 184.76 120.95 184.76 125.893H127.165C124.858 125.893 122.881 125.193 121.233 123.792C119.667 122.309 118.885 120.496 118.885 118.354V46.9168ZM202.371 127.006C198.828 126.594 196.027 125.358 193.967 123.298C191.99 121.238 191.001 118.642 191.001 115.511C191.001 113.122 191.578 110.65 192.731 108.096L221.034 43.7033C222.6 40.0779 225.319 38.2652 229.191 38.2652C232.982 38.2652 235.659 40.0779 237.225 43.7033L265.528 108.096C266.681 110.815 267.258 113.287 267.258 115.511C267.258 118.642 266.228 121.238 264.168 123.298C262.191 125.358 259.389 126.594 255.764 127.006L245.382 103.523H212.877L202.371 127.006ZM240.315 89.4331L226.719 55.5684L225.236 56.1863L228.203 63.8491L217.821 89.4331H240.315ZM287.572 125.893C285.265 125.893 283.287 125.193 281.64 123.792C280.074 122.309 279.291 120.496 279.291 118.354V46.9168C279.291 44.7745 280.074 43.003 281.64 41.6022C283.205 40.1191 285.183 39.3775 287.572 39.3775H315.01C322.343 39.3775 328.811 40.7783 334.414 43.5797C340.099 46.3812 344.466 50.3362 347.515 55.4448C350.646 60.4709 352.212 66.2386 352.212 72.7479V92.2758C352.212 98.785 350.646 104.594 347.515 109.703C344.384 114.811 339.976 118.807 334.291 121.691C328.688 124.493 322.261 125.893 315.01 125.893H287.572ZM313.774 111.68C320.942 111.68 326.381 110.073 330.088 106.86C333.796 103.564 335.65 98.7438 335.65 92.3993V72.5007C335.65 66.321 333.796 61.6245 330.088 58.411C326.381 55.1976 320.942 53.5909 313.774 53.5909H295.853V111.68H313.774Z" fill="white"/>
<mask id="mask0_82_2" style="mask-type:alpha" maskUnits="userSpaceOnUse" x="367" y="4" width="96" height="116">
<path d="M378.171 119.562C375.205 119.562 372.623 118.573 370.426 116.596C368.229 114.618 367.13 112.256 367.13 109.509V14.2597C367.13 11.5132 368.174 9.15117 370.261 7.17366C372.459 5.19616 375.095 4.20741 378.171 4.20741H422.5C433.047 4.20741 441.451 7.17366 447.714 13.1062C454.085 18.9288 457.271 26.7839 457.271 36.6714C457.271 41.3955 456.008 45.8998 453.481 50.1844C450.954 54.3591 447.604 57.6 443.429 59.9071V60.4015C449.142 62.379 453.646 65.6199 456.942 70.1242C460.348 74.6285 462.05 79.792 462.05 85.6146C462.05 92.2063 460.512 98.0839 457.436 103.247C454.36 108.411 450.076 112.421 444.582 115.277C439.089 118.134 432.827 119.562 425.796 119.562H378.171ZM422.171 52.6562C425.796 52.6562 428.872 51.1731 431.399 48.2069C434.036 45.2406 435.354 41.6701 435.354 37.4954C435.354 32.9911 434.146 29.4206 431.729 26.7839C429.422 24.1472 426.236 22.8289 422.171 22.8289H388.553V52.6562H422.171ZM425.467 100.94C429.971 100.94 433.541 99.6219 436.178 96.9853C438.815 94.2387 440.133 90.5035 440.133 85.7794C440.133 81.1652 438.815 77.5948 436.178 75.0679C433.651 72.4313 430.081 71.1129 425.467 71.1129H388.553V100.94H425.467Z" fill="white"/>
</mask>
<g mask="url(#mask0_82_2)">
<rect x="360.774" y="-0.510254" width="106.811" height="126.368" fill="#FF0000"/>
<path d="M360.774 -0.510254H467.585L410.419 62.9243L360.774 115.327V-0.510254Z" fill="#0088D7"/>
<rect x="471.1" y="-5.05127" width="3.00875" height="179.322" transform="rotate(42.8409 471.1 -5.05127)" fill="#1E1E1E"/>
</g>
<rect x="392.213" y="83.7432" width="1.37327" height="42.8575" transform="rotate(43.3181 392.213 83.7432)" fill="#FF0000"/>
<rect x="425.172" y="48.5063" width="1.37327" height="36.7224" transform="rotate(43.3181 425.172 48.5063)" fill="#FF0000"/>
<rect x="455.384" y="15.5479" width="1.37327" height="36.7224" transform="rotate(43.3181 455.384 15.5479)" fill="#FF0000"/>
<path d="M511.776 125.632C504.855 125.632 498.592 124.232 492.989 121.43C487.469 118.629 483.143 114.756 480.012 109.812C476.881 104.869 475.316 99.2657 475.316 93.0036V49.1277C475.316 45.1727 476.716 42.1653 479.518 40.1054C482.319 37.9631 486.439 36.8919 491.877 36.8919V93.0036C491.877 98.5241 493.69 102.932 497.315 106.228C500.941 109.524 505.761 111.172 511.776 111.172C517.791 111.172 522.611 109.524 526.236 106.228C529.862 102.932 531.674 98.5241 531.674 93.0036V49.1277C531.674 45.0903 533.075 42.0417 535.877 39.9818C538.678 37.9219 542.798 36.8919 548.236 36.8919V93.0036C548.236 99.2657 546.67 104.869 543.539 109.812C540.408 114.756 536.041 118.629 530.438 121.43C524.918 124.232 518.697 125.632 511.776 125.632ZM570.763 124.52C568.373 124.52 566.314 123.655 564.583 121.925C562.935 120.194 562.111 118.134 562.111 115.745V49.1277C562.111 45.0079 563.471 41.9593 566.19 39.9818C568.909 37.9219 573.07 36.8919 578.673 36.8919V110.183H612.043C615.916 110.183 618.841 111.419 620.818 113.891C622.796 116.28 623.785 119.823 623.785 124.52H570.763ZM643.181 124.52C640.792 124.52 638.732 123.655 637.002 121.925C635.354 120.194 634.53 118.134 634.53 115.745V49.1277C634.53 45.0079 635.889 41.9593 638.608 39.9818C641.327 37.9219 645.488 36.8919 651.091 36.8919V110.183H684.462C688.334 110.183 691.259 111.419 693.237 113.891C695.214 116.28 696.203 119.823 696.203 124.52H643.181Z" fill="white"/>
<path d="M107.968 84.5397C107.968 86.2975 107.858 88.0553 107.638 89.8131C107.418 91.5709 107.199 93.3836 106.979 95.2512C106.539 99.0964 106.045 102.942 105.496 106.787C104.946 110.632 104.507 114.477 104.177 118.322C104.177 119.421 103.958 120.355 103.518 121.124C102.969 121.893 102.145 122.332 101.046 122.442C99.9478 122.662 98.959 122.771 98.0801 122.771C96.7618 122.771 95.4435 122.717 94.1251 122.607C92.8068 122.607 91.4335 122.607 90.0053 122.607C83.0841 122.497 76.1628 122.442 69.2415 122.442C62.3203 122.442 55.399 122.442 48.4778 122.442H29.6915C27.2745 122.442 24.8576 122.442 22.4406 122.442C20.1336 122.442 17.7715 122.497 15.3546 122.607C14.1461 122.717 12.9376 122.771 11.7292 122.771C10.5207 122.881 9.31222 122.936 8.10374 122.936C7.11499 122.936 6.2361 122.662 5.46707 122.112C4.8079 121.563 4.47832 120.794 4.47832 119.805C4.47832 118.707 4.8079 117.883 5.46707 117.333C6.2361 116.784 7.06006 116.509 7.93895 116.509C8.81784 116.509 9.69673 116.564 10.5756 116.674C11.5644 116.784 12.4982 116.839 13.3771 116.839C15.1349 116.839 16.5081 116.619 17.4969 116.18C18.4856 115.63 18.98 114.367 18.98 112.39C18.98 95.3611 18.98 78.3326 18.98 61.3041C18.98 44.1657 18.9251 27.1372 18.8152 10.2186C18.8152 8.90025 18.5406 8.07629 17.9913 7.7467C17.5518 7.30726 16.7279 7.08753 15.5194 7.08753C14.3109 7.08753 13.0475 7.14246 11.7292 7.25232C10.5207 7.36219 9.25729 7.41712 7.93895 7.41712C7.16992 7.41712 6.45582 7.14247 5.79665 6.59317C5.13749 6.04386 4.8079 5.32976 4.8079 4.45087C4.8079 2.3635 5.90652 1.31982 8.10374 1.31982C9.31222 1.31982 10.5756 1.37475 11.894 1.48461C13.2123 1.59447 14.5306 1.70433 15.849 1.81419C18.4856 1.92406 21.0674 2.03392 23.5942 2.14378C26.2309 2.14378 28.8675 2.14378 31.5042 2.14378C33.7014 2.14378 35.8437 2.14378 37.9311 2.14378C40.1283 2.14378 42.2706 2.08885 44.358 1.97899C45.896 1.86913 47.3792 1.75926 48.8073 1.6494C50.2355 1.42968 51.6637 1.31982 53.0919 1.31982C54.8497 1.31982 55.7286 2.25364 55.7286 4.12128C55.7286 4.89031 55.5089 5.65934 55.0694 6.42837C54.63 7.08754 53.9708 7.41712 53.0919 7.41712C51.6637 7.41712 50.2355 7.36219 48.8073 7.25232C47.489 7.14246 46.0608 7.08753 44.5228 7.08753C43.3143 7.08753 42.5453 7.41712 42.2157 8.07629C41.9959 8.6256 41.8861 9.44956 41.8861 10.5482C41.8861 14.613 41.8312 18.623 41.7213 22.578C41.7213 26.533 41.7213 30.5429 41.7213 34.6078C41.7213 47.3517 41.7213 60.1505 41.7213 73.0043C41.8312 85.8581 41.8861 98.6569 41.8861 111.401C41.8861 112.499 42.1607 113.543 42.71 114.532C43.2594 115.521 44.0833 116.18 45.1819 116.509C46.6101 116.839 48.0933 117.004 49.6313 117.004C51.1694 117.004 52.6525 117.004 54.0807 117.004C62.3203 117.004 69.4613 116.18 75.5036 114.532C81.546 112.884 86.6546 109.863 90.8293 105.468C95.1139 100.964 98.6294 94.4822 101.376 86.0229C101.706 85.0341 102.145 84.1552 102.694 83.3862C103.244 82.5073 104.068 82.0679 105.166 82.0679C105.825 82.0679 106.43 82.2876 106.979 82.727C107.638 83.1665 107.968 83.7707 107.968 84.5397Z" fill="white"/>
</svg>
